<svg xmlns="http://www.w3.org/2000/svg" xmlns:xlink="http://www.w3.org/1999/xlink" width="500" zoomAndPan="magnify" viewBox="0 0 375 374.999991" height="500" preserveAspectRatio="xMidYMid meet" version="1.0"><defs><g/><clipPath id="42c77f3b17"><path d="M 6.632812 247.953125 L 186.886719 247.953125 L 186.886719 259.898438 L 6.632812 259.898438 Z M 6.632812 247.953125 " clip-rule="nonzero"/></clipPath><clipPath id="905e979d9a"><path d="M 187 83.457031 L 305 83.457031 L 305 168 L 187 168 Z M 187 83.457031 " clip-rule="nonzero"/></clipPath><clipPath id="1f83fb3bf1"><path d="M 288 200 L 369.734375 200 L 369.734375 227 L 288 227 Z M 288 200 " clip-rule="nonzero"/></clipPath></defs><g fill="#2e62d1" fill-opacity="1"><g transform="translate(-4.809032, 240.419603)"><g><path d="M 11.253906 -86.199219 L 11.253906 0 L 66.339844 0 L 66.339844 -10.992188 L 22.246094 -10.992188 L 22.246094 -37.605469 L 56.011719 -37.605469 L 56.011719 -48.726562 L 22.246094 -48.726562 L 22.246094 -75.078125 L 66.339844 -75.078125 L 66.339844 -86.199219 Z M 11.253906 -86.199219 "/></g></g></g><g fill="#2e62d1" fill-opacity="1"><g transform="translate(61.263336, 240.419603)"><g><path d="M 22.640625 -37.605469 L 64.75 -37.605469 L 64.882812 0 L 75.871094 0 L 75.871094 -86.199219 L 64.75 -86.199219 L 64.75 -48.726562 L 22.640625 -48.726562 L 22.640625 -86.199219 L 11.386719 -86.199219 L 11.386719 0 L 22.640625 0 Z M 22.640625 -37.605469 "/></g></g></g><g fill="#2e62d1" fill-opacity="1"><g transform="translate(137.001636, 240.419603)"><g><path d="M 6.753906 -86.199219 L 6.753906 -75.078125 L 36.015625 -75.078125 L 36.015625 0 L 47.269531 0 L 47.269531 -75.078125 L 76.535156 -75.078125 L 76.535156 -86.199219 Z M 6.753906 -86.199219 "/></g></g></g><g clip-path="url(#42c77f3b17)"><path fill="#2e62d1" d="M 6.632812 247.953125 L 186.878906 247.953125 L 186.878906 259.898438 L 6.632812 259.898438 Z M 6.632812 247.953125 " fill-opacity="1" fill-rule="nonzero"/></g><path fill="#2e62d1" d="M 346.480469 220.300781 C 351.765625 220.453125 355.960938 224.773438 355.960938 230.058594 C 355.960938 235.449219 351.585938 239.820312 346.199219 239.820312 C 340.808594 239.820312 336.4375 235.449219 336.4375 230.058594 C 336.4375 224.671875 340.808594 220.300781 346.199219 220.300781 C 346.273438 220.300781 346.375 220.300781 346.480469 220.300781 Z M 346.351562 223.527344 C 342.765625 223.425781 339.769531 226.273438 339.691406 229.882812 C 339.691406 229.933594 339.691406 229.984375 339.691406 230.058594 C 339.691406 233.644531 342.589844 236.566406 346.199219 236.566406 C 349.78125 236.566406 352.707031 233.667969 352.707031 230.058594 C 352.730469 226.527344 349.882812 223.605469 346.351562 223.527344 " fill-opacity="1" fill-rule="nonzero"/><path fill="#2e62d1" d="M 323.550781 220.300781 C 328.8125 220.453125 333.007812 224.773438 333.007812 230.058594 C 333.007812 235.449219 328.636719 239.820312 323.246094 239.820312 C 317.859375 239.820312 313.484375 235.449219 313.484375 230.058594 C 313.484375 224.671875 317.882812 220.300781 323.273438 220.300781 C 323.347656 220.300781 323.449219 220.300781 323.550781 220.300781 Z M 323.449219 223.554688 C 319.839844 223.453125 316.867188 226.273438 316.738281 229.855469 C 316.738281 229.933594 316.738281 229.984375 316.738281 230.058594 C 316.738281 233.644531 319.636719 236.566406 323.222656 236.59375 C 326.832031 236.59375 329.753906 233.695312 329.753906 230.109375 C 329.753906 230.085938 329.753906 230.058594 329.753906 230.058594 C 329.753906 226.527344 326.957031 223.65625 323.449219 223.554688 " fill-opacity="1" fill-rule="nonzero"/><path fill="#2e62d1" d="M 256.144531 220.300781 C 261.429688 220.453125 265.625 224.773438 265.625 230.058594 C 265.625 235.449219 261.25 239.820312 255.863281 239.820312 C 250.472656 239.820312 246.101562 235.449219 246.101562 230.058594 C 246.101562 224.671875 250.472656 220.300781 255.863281 220.300781 C 255.964844 220.300781 256.066406 220.300781 256.144531 220.300781 Z M 256.039062 223.554688 C 252.457031 223.453125 249.457031 226.273438 249.355469 229.855469 C 249.355469 229.933594 249.355469 229.984375 249.355469 230.058594 C 249.355469 233.644531 252.277344 236.566406 255.886719 236.542969 C 259.445312 236.542969 262.34375 233.617188 262.371094 230.058594 C 262.371094 226.527344 259.574219 223.65625 256.039062 223.554688 " fill-opacity="1" fill-rule="nonzero"/><path fill="#2e62d1" d="M 311.425781 168.242188 C 314.910156 168.34375 318.085938 170.277344 319.738281 173.351562 L 331.101562 194.273438 L 291.246094 194.273438 L 302.582031 173.351562 C 304.335938 170.125 307.742188 168.140625 311.425781 168.242188 Z M 311.300781 173.097656 C 308.605469 173.023438 306.367188 175.15625 306.292969 177.851562 C 306.292969 177.902344 306.292969 177.953125 306.292969 178.003906 C 306.292969 180.699219 308.476562 182.882812 311.171875 182.882812 C 313.867188 182.882812 316.054688 180.699219 316.054688 178.003906 C 316.054688 175.359375 313.945312 173.175781 311.300781 173.097656 " fill-opacity="1" fill-rule="nonzero"/><path fill="#2e62d1" d="M 275.382812 174.75 C 278.96875 174.75 281.890625 177.671875 281.890625 181.257812 L 281.890625 226.808594 L 271.722656 226.808594 C 270.222656 221.0625 265.039062 217.046875 259.117188 217.046875 L 252.609375 217.046875 C 246.6875 217.046875 241.5 221.0625 240.003906 226.808594 L 236.34375 226.808594 C 232.734375 226.808594 229.835938 223.882812 229.835938 220.300781 L 229.835938 211.554688 C 229.835938 199.304688 233.648438 187.410156 240.765625 177.46875 C 242.011719 175.765625 243.96875 174.75 246.078125 174.75 Z M 259.117188 181.257812 L 251.414062 181.257812 C 247.882812 181.257812 244.628906 183.164062 242.898438 186.265625 C 238.910156 193.457031 236.671875 201.492188 236.367188 209.726562 C 240.992188 206.015625 246.710938 204.03125 252.609375 204.03125 L 259.117188 204.03125 C 261.300781 204.03125 263.488281 204.3125 265.625 204.84375 L 265.625 187.765625 C 265.625 184.179688 262.699219 181.257812 259.117188 181.257812 " fill-opacity="1" fill-rule="nonzero"/><path fill="#2e62d1" d="M 342.945312 230.058594 C 342.921875 228.253906 344.367188 226.808594 346.171875 226.78125 C 347.976562 226.78125 349.425781 228.230469 349.453125 230.007812 C 349.453125 230.035156 349.453125 230.058594 349.453125 230.058594 C 349.453125 231.839844 348.003906 233.3125 346.222656 233.3125 C 344.417969 233.339844 342.945312 231.890625 342.945312 230.085938 C 342.945312 230.085938 342.945312 230.058594 342.945312 230.058594 " fill-opacity="1" fill-rule="nonzero"/><path fill="#2e62d1" d="M 319.992188 230.058594 C 319.992188 228.253906 321.441406 226.808594 323.246094 226.78125 C 325.050781 226.78125 326.5 228.230469 326.5 230.007812 C 326.5 230.035156 326.5 230.058594 326.5 230.058594 C 326.523438 231.839844 325.078125 233.3125 323.273438 233.3125 C 321.46875 233.339844 320.019531 231.890625 319.992188 230.085938 C 319.992188 230.085938 319.992188 230.058594 319.992188 230.058594 " fill-opacity="1" fill-rule="nonzero"/><path fill="#2e62d1" d="M 252.609375 230.058594 C 252.609375 228.253906 254.058594 226.808594 255.835938 226.808594 C 257.640625 226.78125 259.117188 228.230469 259.117188 230.035156 C 259.117188 230.035156 259.117188 230.058594 259.117188 230.058594 C 259.117188 231.839844 257.667969 233.3125 255.886719 233.3125 C 254.082031 233.339844 252.609375 231.890625 252.609375 230.085938 C 252.609375 230.085938 252.609375 230.058594 252.609375 230.058594 " fill-opacity="1" fill-rule="nonzero"/><g clip-path="url(#905e979d9a)"><path fill="#2e62d1" d="M 263.082031 107.367188 C 262.015625 105.917969 259.980469 105.613281 258.53125 106.679688 C 258.253906 106.859375 258.023438 107.085938 257.84375 107.367188 L 227.292969 148.773438 L 235.707031 87.335938 C 235.960938 85.558594 234.714844 83.933594 232.9375 83.675781 C 231.765625 83.523438 230.621094 83.984375 229.910156 84.921875 L 188.226562 138.707031 C 187.132812 140.105469 187.386719 142.164062 188.808594 143.257812 C 190.207031 144.351562 192.265625 144.097656 193.359375 142.671875 L 227.597656 98.496094 L 219.109375 160.542969 C 218.855469 162.320312 220.101562 163.972656 221.878906 164.203125 C 223.046875 164.378906 224.242188 163.871094 224.929688 162.90625 L 260.464844 114.765625 L 299.097656 167.125 C 300.546875 165.5 302.328125 164.175781 304.335938 163.234375 L 263.082031 107.367188 " fill-opacity="1" fill-rule="nonzero"/></g><g clip-path="url(#1f83fb3bf1)"><path fill="#2e62d1" d="M 363.230469 200.777344 L 288.398438 200.777344 L 288.398438 226.808594 L 307.410156 226.808594 C 308.886719 221.0625 314.070312 217.046875 319.992188 217.046875 L 349.453125 217.046875 C 355.375 217.046875 360.558594 221.0625 362.058594 226.808594 L 363.230469 226.808594 C 366.8125 226.808594 369.734375 223.882812 369.734375 220.300781 L 369.734375 207.285156 C 369.734375 203.703125 366.8125 200.777344 363.230469 200.777344 " fill-opacity="1" fill-rule="nonzero"/></g><g fill="#2e62d1" fill-opacity="1"><g transform="translate(194.718266, 256.723938)"><g><path d="M 0.8125 0 L 5.378906 0 L 5.378906 -1.308594 L 2.347656 -1.308594 L 2.347656 -2.792969 L 5.011719 -2.792969 L 5.011719 -4.082031 L 2.347656 -4.082031 L 2.347656 -5.488281 L 5.273438 -5.488281 L 5.273438 -6.785156 L 0.8125 -6.785156 Z M 0.8125 0 "/></g></g></g><g fill="#2e62d1" fill-opacity="1"><g transform="translate(202.946863, 256.723938)"><g><path d="M 0.8125 0 L 5.320312 0 L 5.320312 -1.445312 L 2.355469 -1.445312 L 2.355469 -6.785156 L 0.8125 -6.785156 Z M 0.8125 0 "/></g></g></g><g fill="#2e62d1" fill-opacity="1"><g transform="translate(210.884751, 256.723938)"><g/></g></g><g fill="#2e62d1" fill-opacity="1"><g transform="translate(215.518229, 256.723938)"><g><path d="M 5.011719 0 L 6.550781 0 L 6.550781 -6.785156 L 5.011719 -6.785156 L 5.011719 -4.179688 L 2.355469 -4.179688 L 2.355469 -6.785156 L 0.8125 -6.785156 L 0.8125 0 L 2.355469 0 L 2.355469 -2.734375 L 5.011719 -2.734375 Z M 5.011719 0 "/></g></g></g><g fill="#2e62d1" fill-opacity="1"><g transform="translate(225.239148, 256.723938)"><g><path d="M 4.03125 0.136719 C 6.15625 0.136719 7.65625 -1.316406 7.65625 -3.394531 C 7.65625 -5.46875 6.15625 -6.921875 4.03125 -6.921875 C 1.910156 -6.921875 0.417969 -5.46875 0.417969 -3.394531 C 0.417969 -1.316406 1.910156 0.136719 4.03125 0.136719 Z M 1.988281 -3.394531 C 1.988281 -4.613281 2.832031 -5.457031 4.03125 -5.457031 C 5.242188 -5.457031 6.078125 -4.613281 6.078125 -3.394531 C 6.078125 -2.171875 5.242188 -1.328125 4.03125 -1.328125 C 2.832031 -1.328125 1.988281 -2.171875 1.988281 -3.394531 Z M 1.988281 -3.394531 "/></g></g></g><g fill="#2e62d1" fill-opacity="1"><g transform="translate(235.667453, 256.723938)"><g><path d="M 3.585938 0.136719 C 5.351562 0.136719 6.425781 -0.96875 6.425781 -2.792969 L 6.425781 -6.785156 L 4.886719 -6.785156 L 4.886719 -2.898438 C 4.886719 -1.859375 4.449219 -1.328125 3.585938 -1.328125 C 2.722656 -1.328125 2.289062 -1.859375 2.289062 -2.898438 L 2.289062 -6.785156 L 0.746094 -6.785156 L 0.746094 -2.792969 C 0.746094 -0.96875 1.824219 0.136719 3.585938 0.136719 Z M 3.585938 0.136719 "/></g></g></g><g fill="#2e62d1" fill-opacity="1"><g transform="translate(245.194562, 256.723938)"><g><path d="M 0.0859375 0 L 1.734375 0 L 2.191406 -1.171875 L 4.886719 -1.171875 L 5.339844 0 L 6.988281 0 L 4.292969 -6.785156 L 2.78125 -6.785156 Z M 2.589844 -2.382812 L 3.539062 -4.867188 L 4.496094 -2.382812 Z M 2.589844 -2.382812 "/></g></g></g><g fill="#2e62d1" fill-opacity="1"><g transform="translate(254.62476, 256.723938)"><g><path d="M 0.8125 0 L 2.355469 0 L 2.355469 -2.113281 L 3.375 -2.113281 L 4.585938 0 L 6.367188 0 L 4.964844 -2.355469 C 5.777344 -2.714844 6.253906 -3.449219 6.253906 -4.449219 C 6.253906 -5.894531 5.261719 -6.785156 3.710938 -6.785156 L 0.8125 -6.785156 Z M 2.335938 -3.410156 L 2.335938 -5.46875 L 3.507812 -5.46875 C 4.265625 -5.46875 4.691406 -5.097656 4.691406 -4.441406 C 4.691406 -3.78125 4.265625 -3.410156 3.507812 -3.410156 Z M 2.335938 -3.410156 "/></g></g></g><g fill="#2e62d1" fill-opacity="1"><g transform="translate(263.803013, 256.723938)"><g><path d="M 0.8125 0 L 2.355469 0 L 2.355469 -6.785156 L 0.8125 -6.785156 Z M 0.8125 0 "/></g></g></g><g fill="#2e62d1" fill-opacity="1"><g transform="translate(269.328002, 256.723938)"><g/></g></g><g fill="#2e62d1" fill-opacity="1"><g transform="translate(273.96148, 256.723938)"><g><path d="M 2.441406 0 L 3.984375 0 L 3.984375 -5.339844 L 6.136719 -5.339844 L 6.136719 -6.785156 L 0.289062 -6.785156 L 0.289062 -5.339844 L 2.441406 -5.339844 Z M 2.441406 0 "/></g></g></g><g fill="#2e62d1" fill-opacity="1"><g transform="translate(282.742428, 256.723938)"><g><path d="M 0.8125 0 L 2.355469 0 L 2.355469 -2.113281 L 3.375 -2.113281 L 4.585938 0 L 6.367188 0 L 4.964844 -2.355469 C 5.777344 -2.714844 6.253906 -3.449219 6.253906 -4.449219 C 6.253906 -5.894531 5.261719 -6.785156 3.710938 -6.785156 L 0.8125 -6.785156 Z M 2.335938 -3.410156 L 2.335938 -5.46875 L 3.507812 -5.46875 C 4.265625 -5.46875 4.691406 -5.097656 4.691406 -4.441406 C 4.691406 -3.78125 4.265625 -3.410156 3.507812 -3.410156 Z M 2.335938 -3.410156 "/></g></g></g><g fill="#2e62d1" fill-opacity="1"><g transform="translate(291.920682, 256.723938)"><g><path d="M 0.0859375 0 L 1.734375 0 L 2.191406 -1.171875 L 4.886719 -1.171875 L 5.339844 0 L 6.988281 0 L 4.292969 -6.785156 L 2.78125 -6.785156 Z M 2.589844 -2.382812 L 3.539062 -4.867188 L 4.496094 -2.382812 Z M 2.589844 -2.382812 "/></g></g></g><g fill="#2e62d1" fill-opacity="1"><g transform="translate(301.350874, 256.723938)"><g><path d="M 0.8125 0 L 2.347656 0 L 2.347656 -4.160156 L 5.339844 0 L 6.648438 0 L 6.648438 -6.785156 L 5.117188 -6.785156 L 5.117188 -2.65625 L 2.121094 -6.785156 L 0.8125 -6.785156 Z M 0.8125 0 "/></g></g></g><g fill="#2e62d1" fill-opacity="1"><g transform="translate(311.168698, 256.723938)"><g><path d="M 3.179688 0.136719 C 4.789062 0.136719 5.777344 -0.628906 5.777344 -1.910156 C 5.777344 -2.984375 5.070312 -3.625 3.382812 -4.023438 C 2.347656 -4.265625 1.988281 -4.527344 1.988281 -4.945312 C 1.988281 -5.390625 2.382812 -5.660156 3.035156 -5.660156 C 3.742188 -5.660156 4.167969 -5.292969 4.167969 -4.683594 L 5.652344 -4.683594 C 5.652344 -6.046875 4.625 -6.921875 3.015625 -6.921875 C 1.453125 -6.921875 0.484375 -6.15625 0.484375 -4.914062 C 0.484375 -3.808594 1.230469 -3.148438 2.820312 -2.8125 C 3.78125 -2.609375 4.214844 -2.328125 4.214844 -1.851562 C 4.214844 -1.394531 3.808594 -1.132812 3.167969 -1.132812 C 2.421875 -1.132812 1.9375 -1.511719 1.9375 -2.160156 L 0.425781 -2.160156 C 0.425781 -0.757812 1.472656 0.136719 3.179688 0.136719 Z M 3.179688 0.136719 "/></g></g></g><g fill="#2e62d1" fill-opacity="1"><g transform="translate(319.73646, 256.723938)"><g><path d="M 0.8125 0 L 5.378906 0 L 5.378906 -1.308594 L 2.347656 -1.308594 L 2.347656 -2.792969 L 5.011719 -2.792969 L 5.011719 -4.082031 L 2.347656 -4.082031 L 2.347656 -5.488281 L 5.273438 -5.488281 L 5.273438 -6.785156 L 0.8125 -6.785156 Z M 0.8125 0 "/></g></g></g><g fill="#2e62d1" fill-opacity="1"><g transform="translate(327.965063, 256.723938)"><g><path d="M 0.8125 0 L 2.355469 0 L 2.355469 -2.113281 L 3.375 -2.113281 L 4.585938 0 L 6.367188 0 L 4.964844 -2.355469 C 5.777344 -2.714844 6.253906 -3.449219 6.253906 -4.449219 C 6.253906 -5.894531 5.261719 -6.785156 3.710938 -6.785156 L 0.8125 -6.785156 Z M 2.335938 -3.410156 L 2.335938 -5.46875 L 3.507812 -5.46875 C 4.265625 -5.46875 4.691406 -5.097656 4.691406 -4.441406 C 4.691406 -3.78125 4.265625 -3.410156 3.507812 -3.410156 Z M 2.335938 -3.410156 "/></g></g></g><g fill="#2e62d1" fill-opacity="1"><g transform="translate(337.14331, 256.723938)"><g><path d="M 2.695312 0 L 4.207031 0 L 6.8125 -6.785156 L 5.167969 -6.785156 L 3.460938 -2.21875 L 2.644531 -4.371094 L 1.746094 -6.785156 L 0.0859375 -6.785156 Z M 2.695312 0 "/></g></g></g><g fill="#2e62d1" fill-opacity="1"><g transform="translate(346.399087, 256.723938)"><g><path d="M 0.8125 0 L 2.355469 0 L 2.355469 -6.785156 L 0.8125 -6.785156 Z M 0.8125 0 "/></g></g></g><g fill="#2e62d1" fill-opacity="1"><g transform="translate(351.924069, 256.723938)"><g><path d="M 3.925781 0.136719 C 5.710938 0.136719 7.09375 -0.949219 7.433594 -2.597656 L 5.84375 -2.597656 C 5.5625 -1.824219 4.847656 -1.328125 3.953125 -1.328125 C 2.800781 -1.328125 1.988281 -2.171875 1.988281 -3.394531 C 1.988281 -4.613281 2.8125 -5.457031 3.964844 -5.457031 C 4.828125 -5.457031 5.535156 -4.992188 5.796875 -4.246094 L 7.386719 -4.246094 C 7 -5.875 5.640625 -6.921875 3.917969 -6.921875 C 1.859375 -6.921875 0.417969 -5.46875 0.417969 -3.394531 C 0.417969 -1.316406 1.859375 0.136719 3.925781 0.136719 Z M 3.925781 0.136719 "/></g></g></g><g fill="#2e62d1" fill-opacity="1"><g transform="translate(362.100423, 256.723938)"><g><path d="M 0.8125 0 L 5.378906 0 L 5.378906 -1.308594 L 2.347656 -1.308594 L 2.347656 -2.792969 L 5.011719 -2.792969 L 5.011719 -4.082031 L 2.347656 -4.082031 L 2.347656 -5.488281 L 5.273438 -5.488281 L 5.273438 -6.785156 L 0.8125 -6.785156 Z M 0.8125 0 "/></g></g></g></svg>