{
  "accessors": [
    {
      "bufferView": 2,
      "componentType": 5126,
      "count": 3522,
      "max": [
        419.7640075683594,
        318.23382568359375,
        140.69020080566406
      ],
      "min": [
        -397.517333984375,
        -1.6667087078094482,
        -143.71437072753906
      ],
      "type": "VEC3"
    },
    {
      "bufferView": 2,
      "byteOffset": 42264,
      "componentType": 5126,
      "count": 3522,
      "max": [
        1.0,
        1.0,
        1.0
      ],
      "min": [
        -1.0,
        -1.0,
        -1.0
      ],
      "type": "VEC3"
    },
    {
      "bufferView": 1,
      "componentType": 5126,
      "count": 3522,
      "max": [
        1.0,
        1.0
      ],
      "min": [
        -1.862645149230957e-07,
        0.0
      ],
      "type": "VEC2"
    },
    {
      "bufferView": 0,
      "componentType": 5125,
      "count": 8664,
      "type": "SCALAR"
    },
    {
      "bufferView": 2,
      "byteOffset": 84528,
      "componentType": 5126,
      "count": 96,
      "max": [
        369.2070617675781,
        85.07392883300781,
        112.67305755615234
      ],
      "min": [
        -382.2783203125,
        51.06132125854492,
        -115.6972427368164
      ],
      "type": "VEC3"
    },
    {
      "bufferView": 2,
      "byteOffset": 85680,
      "componentType": 5126,
      "count": 96,
      "max": [
        1.0,
        1.0,
        1.0
      ],
      "min": [
        -1.0,
        -1.0,
        -1.0
      ],
      "type": "VEC3"
    },
    {
      "bufferView": 1,
      "byteOffset": 28176,
      "componentType": 5126,
      "count": 96,
      "max": [
        0.875,
        1.0
      ],
      "min": [
        0.125,
        0.0
      ],
      "type": "VEC2"
    },
    {
      "bufferView": 0,
      "byteOffset": 34656,
      "componentType": 5125,
      "count": 144,
      "type": "SCALAR"
    },
    {
      "bufferView": 2,
      "byteOffset": 86832,
      "componentType": 5126,
      "count": 96,
      "max": [
        369.2070617675781,
        85.07392883300781,
        100.4105224609375
      ],
      "min": [
        347.61016845703125,
        72.4937973022461,
        -103.43468475341797
      ],
      "type": "VEC3"
    },
    {
      "bufferView": 2,
      "byteOffset": 87984,
      "componentType": 5126,
      "count": 96,
      "max": [
        1.0,
        1.0,
        1.0
      ],
      "min": [
        -1.0,
        -1.0,
        -1.0
      ],
      "type": "VEC3"
    },
    {
      "bufferView": 1,
      "byteOffset": 28944,
      "componentType": 5126,
      "count": 96,
      "max": [
        0.875,
        1.0
      ],
      "min": [
        0.125,
        0.0
      ],
      "type": "VEC2"
    },
    {
      "bufferView": 0,
      "byteOffset": 35232,
      "componentType": 5125,
      "count": 144,
      "type": "SCALAR"
    },
    {
      "bufferView": 2,
      "byteOffset": 89136,
      "componentType": 5126,
      "count": 5286,
      "max": [
        397.5406494140625,
        236.86471557617188,
        123.430419921875
      ],
      "min": [
        -319.0015869140625,
        22.379806518554688,
        -126.45460510253906
      ],
      "type": "VEC3"
    },
    {
      "bufferView": 2,
      "byteOffset": 152568,
      "componentType": 5126,
      "count": 5286,
      "max": [
        1.0,
        1.0,
        1.0
      ],
      "min": [
        -1.0,
        -1.0,
        -1.0
      ],
      "type": "VEC3"
    },
    {
      "bufferView": 1,
      "byteOffset": 29712,
      "componentType": 5126,
      "count": 5286,
      "max": [
        0.875,
        1.0
      ],
      "min": [
        0.11680560559034348,
        0.0
      ],
      "type": "VEC2"
    },
    {
      "bufferView": 0,
      "byteOffset": 35808,
      "componentType": 5125,
      "count": 11436,
      "type": "SCALAR"
    },
    {
      "bufferView": 2,
      "byteOffset": 216000,
      "componentType": 5126,
      "count": 1503,
      "max": [
        433.7536926269531,
        358.64276123046875,
        109.81490325927734
      ],
      "min": [
        -398.9552307128906,
        28.079341888427734,
        -112.83905792236328
      ],
      "type": "VEC3"
    },
    {
      "bufferView": 2,
      "byteOffset": 234036,
      "componentType": 5126,
      "count": 1503,
      "max": [
        1.0,
        1.0,
        1.0
      ],
      "min": [
        -1.0,
        -1.0,
        -1.0
      ],
      "type": "VEC3"
    },
    {
      "bufferView": 1,
      "byteOffset": 72000,
      "componentType": 5126,
      "count": 1503,
      "max": [
        1.0,
        1.0
      ],
      "min": [
        -1.862645149230957e-07,
        0.0
      ],
      "type": "VEC2"
    },
    {
      "bufferView": 0,
      "byteOffset": 81552,
      "componentType": 5125,
      "count": 3318,
      "type": "SCALAR"
    },
    {
      "bufferView": 2,
      "byteOffset": 252072,
      "componentType": 5126,
      "count": 857,
      "max": [
        397.1764221191406,
        307.98406982421875,
        129.01747131347656
      ],
      "min": [
        -397.50457763671875,
        17.573148727416992,
        -132.0416259765625
      ],
      "type": "VEC3"
    },
    {
      "bufferView": 2,
      "byteOffset": 262356,
      "componentType": 5126,
      "count": 857,
      "max": [
        1.0,
        1.0,
        1.0
      ],
      "min": [
        -1.0,
        -1.0,
        -1.0
      ],
      "type": "VEC3"
    },
    {
      "bufferView": 1,
      "byteOffset": 84024,
      "componentType": 5126,
      "count": 857,
      "max": [
        1.0,
        1.0
      ],
      "min": [
        -1.862645149230957e-07,
        0.0
      ],
      "type": "VEC2"
    },
    {
      "bufferView": 0,
      "byteOffset": 94824,
      "componentType": 5125,
      "count": 1638,
      "type": "SCALAR"
    },
    {
      "bufferView": 2,
      "byteOffset": 272640,
      "componentType": 5126,
      "count": 48,
      "max": [
        -359.8076477050781,
        302.3649597167969,
        100.611328125
      ],
      "min": [
        -395.20947265625,
        66.15850067138672,
        -103.63546752929688
      ],
      "type": "VEC3"
    },
    {
      "bufferView": 2,
      "byteOffset": 273216,
      "componentType": 5126,
      "count": 48,
      "max": [
        -1.0,
        0.0,
        0.0
      ],
      "min": [
        -1.0,
        0.0,
        -6.486230290647654e-07
      ],
      "type": "VEC3"
    },
    {
      "bufferView": 1,
      "byteOffset": 90880,
      "componentType": 5126,
      "count": 48,
      "max": [
        0.625,
        0.75
      ],
      "min": [
        0.375,
        0.018575208261609077
      ],
      "type": "VEC2"
    },
    {
      "bufferView": 0,
      "byteOffset": 101376,
      "componentType": 5125,
      "count": 96,
      "type": "SCALAR"
    },
    {
      "bufferView": 2,
      "byteOffset": 273792,
      "componentType": 5126,
      "count": 58,
      "max": [
        -227.41696166992188,
        270.22406005859375,
        137.67233276367188
      ],
      "min": [
        -389.63580322265625,
        184.10292053222656,
        -140.6964874267578
      ],
      "type": "VEC3"
    },
    {
      "bufferView": 2,
      "byteOffset": 274488,
      "componentType": 5126,
      "count": 58,
      "max": [
        0.9521996974945068,
        0.17547254264354706,
        1.0
      ],
      "min": [
        -0.9844843745231628,
        -0.14299817383289337,
        -1.0
      ],
      "type": "VEC3"
    },
    {
      "bufferView": 1,
      "byteOffset": 91264,
      "componentType": 5126,
      "count": 58,
      "max": [
        0.6180244088172913,
        0.9885609149932861
      ],
      "min": [
        0.3819755017757416,
        0.0031249967869371176
      ],
      "type": "VEC2"
    },
    {
      "bufferView": 0,
      "byteOffset": 101760,
      "componentType": 5125,
      "count": 132,
      "type": "SCALAR"
    },
    {
      "bufferView": 2,
      "byteOffset": 275184,
      "componentType": 5126,
      "count": 626,
      "max": [
        397.3204345703125,
        356.0414733886719,
        101.59522247314453
      ],
      "min": [
        -401.0675354003906,
        65.45706176757813,
        -104.61930084228516
      ],
      "type": "VEC3"
    },
    {
      "bufferView": 2,
      "byteOffset": 282696,
      "componentType": 5126,
      "count": 626,
      "max": [
        1.0,
        1.0,
        1.0
      ],
      "min": [
        -1.0,
        -1.0,
        -1.0
      ],
      "type": "VEC3"
    },
    {
      "bufferView": 1,
      "byteOffset": 91728,
      "componentType": 5126,
      "count": 626,
      "max": [
        1.0,
        1.0
      ],
      "min": [
        -1.862645149230957e-07,
        0.0
      ],
      "type": "VEC2"
    },
    {
      "bufferView": 0,
      "byteOffset": 102288,
      "componentType": 5125,
      "count": 1770,
      "type": "SCALAR"
    },
    {
      "bufferView": 2,
      "byteOffset": 290208,
      "componentType": 5126,
      "count": 243,
      "max": [
        411.1336364746094,
        318.23382568359375,
        123.02558135986328
      ],
      "min": [
        -385.6474914550781,
        114.73717498779297,
        -126.04973602294922
      ],
      "type": "VEC3"
    },
    {
      "bufferView": 2,
      "byteOffset": 293124,
      "componentType": 5126,
      "count": 243,
      "max": [
        1.0,
        1.0,
        1.0
      ],
      "min": [
        -1.0,
        -1.0,
        -1.0
      ],
      "type": "VEC3"
    },
    {
      "bufferView": 1,
      "byteOffset": 96736,
      "componentType": 5126,
      "count": 243,
      "max": [
        1.0,
        1.0
      ],
      "min": [
        -7.450580596923828e-08,
        0.0
      ],
      "type": "VEC2"
    },
    {
      "bufferView": 0,
      "byteOffset": 109368,
      "componentType": 5125,
      "count": 1020,
      "type": "SCALAR"
    },
    {
      "bufferView": 2,
      "byteOffset": 296040,
      "componentType": 5126,
      "count": 104,
      "max": [
        -130.0741729736328,
        230.46435546875,
        97.38919067382813
      ],
      "min": [
        -176.2137451171875,
        109.70187377929688,
        -100.41326141357422
      ],
      "type": "VEC3"
    },
    {
      "bufferView": 2,
      "byteOffset": 297288,
      "componentType": 5126,
      "count": 104,
      "max": [
        1.0,
        1.0,
        1.0
      ],
      "min": [
        -1.0,
        -1.0,
        -1.0
      ],
      "type": "VEC3"
    },
    {
      "bufferView": 1,
      "byteOffset": 98680,
      "componentType": 5126,
      "count": 104,
      "max": [
        0.875,
        1.0
      ],
      "min": [
        0.125,
        0.0
      ],
      "type": "VEC2"
    },
    {
      "bufferView": 0,
      "byteOffset": 113448,
      "componentType": 5125,
      "count": 180,
      "type": "SCALAR"
    }
  ],
  "asset": {
    "extras": {
      "author": "PolyLabs (https://sketchfab.com/polylabs1)",
      "license": "CC-BY-4.0 (http://creativecommons.org/licenses/by/4.0/)",
      "source": "https://sketchfab.com/3d-models/truck-mixer-08f91e9c1fd543b4a28bfe6e9fcae229",
      "title": "Truck Mixer"
    },
    "generator": "Sketchfab-12.67.0",
    "version": "2.0"
  },
  "bufferViews": [
    {
      "buffer": 0,
      "byteLength": 114168,
      "name": "floatBufferViews",
      "target": 34963
    },
    {
      "buffer": 0,
      "byteLength": 99512,
      "byteOffset": 114168,
      "byteStride": 8,
      "name": "floatBufferViews",
      "target": 34962
    },
    {
      "buffer": 0,
      "byteLength": 298536,
      "byteOffset": 213680,
      "byteStride": 12,
      "name": "floatBufferViews",
      "target": 34962
    }
  ],
  "buffers": [
    {
      "byteLength": 512216,
      "uri": "pump.bin"
    }
  ],
  "materials": [
    {
      "doubleSided": true,
      "name": "PlasticBlack",
      "pbrMetallicRoughness": {
        "baseColorFactor": [
          0.00901863,
          0.00901863,
          0.00901863,
          1.0
        ],
        "metallicFactor": 0.0,
        "roughnessFactor": 0.9984379275
      }
    },
    {
      "doubleSided": true,
      "emissiveFactor": [
        0.42145933391105356,
        0.133254469227771,
        0.013121499945137999
      ],
      "name": "LightOrange",
      "pbrMetallicRoughness": {
        "baseColorFactor": [
          0.7507823991593767,
          0.31886796229800063,
          0.019580703030493137,
          1.0
        ],
        "metallicFactor": 0.0,
        "roughnessFactor": 0.8040408206
      }
    },
    {
      "doubleSided": true,
      "name": "LightRed",
      "pbrMetallicRoughness": {
        "baseColorFactor": [
          0.8,
          0.8,
          0.8,
          1.0
        ],
        "metallicFactor": 0.0,
        "roughnessFactor": 0.8040408206
      }
    },
    {
      "doubleSided": true,
      "name": "MetalGreyMatt",
      "pbrMetallicRoughness": {
        "baseColorFactor": [
          0.31820458922610334,
          0.31820458922610334,
          0.31820458922610334,
          1.0
        ],
        "roughnessFactor": 0.8040408206
      }
    },
    {
      "doubleSided": true,
      "name": "MetalRedMatt",
      "pbrMetallicRoughness": {
        "baseColorFactor": [
          0.6610019810791393,
          0.6610019810791393,
          0.6610019810791393,
          1.0
        ],
        "metallicFactor": 0.0,
        "roughnessFactor": 0.9879335612
      }
    },
    {
      "doubleSided": true,
      "name": "MetalGrey",
      "pbrMetallicRoughness": {
        "baseColorFactor": [
          0.356069,
          0.356069,
          0.356069,
          1.0
        ],
        "roughnessFactor": 0.9024864883
      }
    },
    {
      "doubleSided": true,
      "emissiveFactor": [
        1.0,
        1.0,
        0.30626965682677804
      ],
      "name": "LightYellow",
      "pbrMetallicRoughness": {
        "baseColorFactor": [
          0.8,
          0.8,
          0.8,
          1.0
        ],
        "metallicFactor": 0.0,
        "roughnessFactor": 0.8040408206
      }
    },
    {
      "doubleSided": true,
      "name": "GlassDarkCar",
      "pbrMetallicRoughness": {
        "baseColorFactor": [
          8.64819e-05,
          0.000757544,
          0.0118338,
          1.0
        ],
        "metallicFactor": 0.0,
        "roughnessFactor": 0.9995571658
      }
    },
    {
      "doubleSided": true,
      "name": "PlasticGrey",
      "pbrMetallicRoughness": {
        "baseColorFactor": [
          0.014279834685484171,
          0.014279834685484171,
          0.014279834685484171,
          1.0
        ],
        "metallicFactor": 0.0,
        "roughnessFactor": 0.9820180217
      }
    },
    {
      "doubleSided": true,
      "name": "Chrome",
      "pbrMetallicRoughness": {
        "baseColorFactor": [
          0.356069,
          0.356069,
          0.356069,
          1.0
        ],
        "metallicFactor": 0.0,
        "roughnessFactor": 0.8931793
      }
    },
    {
      "doubleSided": true,
      "name": "MetalBlackMattLight",
      "pbrMetallicRoughness": {
        "baseColorFactor": [
          0.0453614,
          0.0453614,
          0.0453614,
          1.0
        ],
        "metallicFactor": 0.0,
        "roughnessFactor": 0.9888887716
      }
    }
  ],
  "meshes": [
    {
      "name": "truckMixer_PlasticBlack_0",
      "primitives": [
        {
          "attributes": {
            "NORMAL": 1,
            "POSITION": 0,
            "TEXCOORD_0": 2
          },
          "indices": 3,
          "material": 0,
          "mode": 4
        }
      ]
    },
    {
      "name": "truckMixer_LightOrange_0",
      "primitives": [
        {
          "attributes": {
            "NORMAL": 5,
            "POSITION": 4,
            "TEXCOORD_0": 6
          },
          "indices": 7,
          "material": 1,
          "mode": 4
        }
      ]
    },
    {
      "name": "truckMixer_LightRed_0",
      "primitives": [
        {
          "attributes": {
            "NORMAL": 9,
            "POSITION": 8,
            "TEXCOORD_0": 10
          },
          "indices": 11,
          "material": 2,
          "mode": 4
        }
      ]
    },
    {
      "name": "truckMixer_MetalGreyMatt_0",
      "primitives": [
        {
          "attributes": {
            "NORMAL": 13,
            "POSITION": 12,
            "TEXCOORD_0": 14
          },
          "indices": 15,
          "material": 3,
          "mode": 4
        }
      ]
    },
    {
      "name": "truckMixer_MetalRedMatt_0",
      "primitives": [
        {
          "attributes": {
            "NORMAL": 17,
            "POSITION": 16,
            "TEXCOORD_0": 18
          },
          "indices": 19,
          "material": 4,
          "mode": 4
        }
      ]
    },
    {
      "name": "truckMixer_MetalGrey_0",
      "primitives": [
        {
          "attributes": {
            "NORMAL": 21,
            "POSITION": 20,
            "TEXCOORD_0": 22
          },
          "indices": 23,
          "material": 5,
          "mode": 4
        }
      ]
    },
    {
      "name": "truckMixer_LightYellow_0",
      "primitives": [
        {
          "attributes": {
            "NORMAL": 25,
            "POSITION": 24,
            "TEXCOORD_0": 26
          },
          "indices": 27,
          "material": 6,
          "mode": 4
        }
      ]
    },
    {
      "name": "truckMixer_GlassDarkCar_0",
      "primitives": [
        {
          "attributes": {
            "NORMAL": 29,
            "POSITION": 28,
            "TEXCOORD_0": 30
          },
          "indices": 31,
          "material": 7,
          "mode": 4
        }
      ]
    },
    {
      "name": "truckMixer_PlasticGrey_0",
      "primitives": [
        {
          "attributes": {
            "NORMAL": 33,
            "POSITION": 32,
            "TEXCOORD_0": 34
          },
          "indices": 35,
          "material": 8,
          "mode": 4
        }
      ]
    },
    {
      "name": "truckMixer_Chrome_0",
      "primitives": [
        {
          "attributes": {
            "NORMAL": 37,
            "POSITION": 36,
            "TEXCOORD_0": 38
          },
          "indices": 39,
          "material": 9,
          "mode": 4
        }
      ]
    },
    {
      "name": "truckMixer_MetalBlackMattLight_0",
      "primitives": [
        {
          "attributes": {
            "NORMAL": 41,
            "POSITION": 40,
            "TEXCOORD_0": 42
          },
          "indices": 43,
          "material": 10,
          "mode": 4
        }
      ]
    }
  ],
  "nodes": [
    {
      "children": [
        1
      ],
      "matrix": [
        1.0,
        0.0,
        0.0,
        0.0,
        0.0,
        2.220446049250313e-16,
        -1.0,
        0.0,
        0.0,
        1.0,
        2.220446049250313e-16,
        0.0,
        0.0,
        0.0,
        0.0,
        1.0
      ],
      "name": "Sketchfab_model"
    },
    {
      "children": [
        2
      ],
      "matrix": [
        1.0,
        0.0,
        0.0,
        0.0,
        0.0,
        0.0,
        1.0,
        0.0,
        0.0,
        -1.0,
        0.0,
        0.0,
        0.0,
        0.0,
        0.0,
        1.0
      ],
      "name": "bd8fa691463b472c859716b103f11cab.fbx"
    },
    {
      "children": [
        3
      ],
      "name": "RootNode"
    },
    {
      "children": [
        4,
        5,
        6,
        7,
        8,
        9,
        10,
        11,
        12,
        13,
        14
      ],
      "matrix": [
        1.0,
        0.0,
        0.0,
        0.0,
        0.0,
        1.0,
        0.0,
        0.0,
        0.0,
        0.0,
        1.0,
        0.0,
        -12.310314178466797,
        0.0,
        -0.8544822931289673,
        1.0
      ],
      "name": "truckMixer"
    },
    {
      "mesh": 0,
      "name": "truckMixer_PlasticBlack_0"
    },
    {
      "mesh": 1,
      "name": "truckMixer_LightOrange_0"
    },
    {
      "mesh": 2,
      "name": "truckMixer_LightRed_0"
    },
    {
      "mesh": 3,
      "name": "truckMixer_MetalGreyMatt_0"
    },
    {
      "mesh": 4,
      "name": "truckMixer_MetalRedMatt_0"
    },
    {
      "mesh": 5,
      "name": "truckMixer_MetalGrey_0"
    },
    {
      "mesh": 6,
      "name": "truckMixer_LightYellow_0"
    },
    {
      "mesh": 7,
      "name": "truckMixer_GlassDarkCar_0"
    },
    {
      "mesh": 8,
      "name": "truckMixer_PlasticGrey_0"
    },
    {
      "mesh": 9,
      "name": "truckMixer_Chrome_0"
    },
    {
      "mesh": 10,
      "name": "truckMixer_MetalBlackMattLight_0"
    }
  ],
  "scene": 0,
  "scenes": [
    {
      "name": "Sketchfab_Scene",
      "nodes": [
        0
      ]
    }
  ]
}
